<svg xmlns="http://www.w3.org/2000/svg" viewBox="0 0 1200 620" width="1200" height="620">
  <rect width="1200" height="620" fill="#0f121e"/>
  <g font-family="Arial, sans-serif" fill="none" stroke="#4b5568" stroke-width="1.5">
    <!-- three low-fi phone frames -->
    <rect x="60" y="60" width="220" height="480" rx="18" stroke="#5B7CFF" stroke-opacity="0.5"/>
    <rect x="88" y="92" width="164" height="16" rx="3"/>
    <rect x="88" y="120" width="120" height="10" rx="3"/>
    <rect x="88" y="150" width="164" height="90" rx="6"/>
    <line x1="88" y1="150" x2="252" y2="240"/>
    <line x1="252" y1="150" x2="88" y2="240"/>
    <rect x="88" y="256" width="164" height="30" rx="15"/>
    <rect x="88" y="300" width="164" height="50" rx="6"/>
    <rect x="88" y="364" width="164" height="50" rx="6"/>
    <rect x="88" y="428" width="164" height="50" rx="6"/>

    <rect x="340" y="60" width="220" height="480" rx="18" stroke="#9ca3af" stroke-opacity="0.6"/>
    <rect x="368" y="92" width="80" height="16" rx="3"/>
    <circle cx="500" cy="100" r="10"/>
    <rect x="368" y="130" width="164" height="120" rx="8"/>
    <rect x="368" y="264" width="76" height="76" rx="6"/>
    <rect x="452" y="264" width="76" height="76" rx="6"/>
    <rect x="368" y="352" width="76" height="76" rx="6"/>
    <rect x="452" y="352" width="76" height="76" rx="6"/>
    <rect x="368" y="450" width="164" height="34" rx="17"/>

    <rect x="620" y="60" width="220" height="480" rx="18" stroke="#10b981" stroke-opacity="0.5"/>
    <rect x="648" y="92" width="164" height="16" rx="3"/>
    <rect x="648" y="122" width="164" height="150" rx="6"/>
    <path d="M648 197 l30 -34 l26 20 l40 -46 l68 60" />
    <rect x="648" y="288" width="164" height="12" rx="3"/>
    <rect x="648" y="310" width="120" height="10" rx="3"/>
    <rect x="648" y="340" width="164" height="40" rx="8"/>
    <rect x="648" y="392" width="164" height="40" rx="8"/>
    <rect x="648" y="444" width="164" height="40" rx="8"/>
  </g>
  <!-- annotation callouts -->
  <g font-family="Arial, sans-serif" font-size="11" fill="#6b7280">
    <circle cx="60" cy="560" r="9" fill="none" stroke="#5B7CFF"/>
    <text x="60" y="564" text-anchor="middle" fill="#5B7CFF" font-size="10">A</text>
    <text x="80" y="564">Step-by-step wizard</text>

    <circle cx="340" cy="560" r="9" fill="none" stroke="#9ca3af"/>
    <text x="340" y="564" text-anchor="middle" fill="#9ca3af" font-size="10">B</text>
    <text x="360" y="564">Grid-based selection</text>

    <circle cx="620" cy="560" r="9" fill="none" stroke="#10b981"/>
    <text x="620" y="564" text-anchor="middle" fill="#10b981" font-size="10">C</text>
    <text x="640" y="564">Summary + confirmation</text>
  </g>
  <text x="1050" y="300" text-anchor="middle" font-family="Arial, sans-serif" font-size="13" letter-spacing="1.5" fill="#5B7CFF" opacity="0.7" transform="rotate(90 1050 300)">WIREFRAME PREVIEW</text>
</svg>
