<svg xmlns="http://www.w3.org/2000/svg" viewBox="0 0 1200 750" width="1200" height="750">
  <defs>
    <linearGradient id="bgd" x1="0" y1="0" x2="1" y2="1">
      <stop offset="0%" stop-color="#0f121e"/>
      <stop offset="100%" stop-color="#141a2c"/>
    </linearGradient>
  </defs>
  <rect width="1200" height="750" fill="url(#bgd)"/>
  <!-- top bar -->
  <rect width="1200" height="56" fill="#0b0e17"/>
  <circle cx="30" cy="28" r="7" fill="#ef4444" opacity="0.6"/>
  <circle cx="54" cy="28" r="7" fill="#f59e0b" opacity="0.6"/>
  <circle cx="78" cy="28" r="7" fill="#10b981" opacity="0.6"/>
  <rect x="520" y="16" width="160" height="24" rx="12" fill="#1b2236"/>
  <!-- sidebar -->
  <rect x="0" y="56" width="220" height="694" fill="#0d1120"/>
  <rect x="28" y="96" width="130" height="16" rx="4" fill="#f3f4f6" opacity="0.8"/>
  <g fill="#8891ab">
    <rect x="28" y="150" width="164" height="36" rx="8" fill="#5B7CFF" opacity="0.18" stroke="#5B7CFF" stroke-opacity="0.4"/>
    <rect x="44" y="164" width="90" height="8" rx="4" fill="#c7cff9"/>
    <rect x="28" y="200" width="164" height="36" rx="8" fill="transparent"/>
    <rect x="44" y="214" width="110" height="8" rx="4" fill="#6b7280"/>
    <rect x="28" y="250" width="164" height="36" rx="8" fill="transparent"/>
    <rect x="44" y="264" width="80" height="8" rx="4" fill="#6b7280"/>
    <rect x="28" y="300" width="164" height="36" rx="8" fill="transparent"/>
    <rect x="44" y="314" width="100" height="8" rx="4" fill="#6b7280"/>
  </g>
  <!-- main content -->
  <rect x="252" y="96" width="220" height="14" rx="4" fill="#f3f4f6" opacity="0.85"/>
  <rect x="252" y="122" width="160" height="10" rx="4" fill="#6b7280"/>

  <!-- kpi cards -->
  <g>
    <rect x="252" y="160" width="216" height="104" rx="14" fill="#171d30" stroke="#232a40"/>
    <rect x="276" y="184" width="90" height="10" rx="4" fill="#9ca3af"/>
    <rect x="276" y="208" width="120" height="22" rx="4" fill="#f3f4f6"/>
    <path d="M276 244 l14 -10 l14 6 l16 -14" stroke="#10b981" stroke-width="2.5" fill="none" stroke-linecap="round" stroke-linejoin="round"/>
  </g>
  <g>
    <rect x="488" y="160" width="216" height="104" rx="14" fill="#171d30" stroke="#232a40"/>
    <rect x="512" y="184" width="90" height="10" rx="4" fill="#9ca3af"/>
    <rect x="512" y="208" width="120" height="22" rx="4" fill="#f3f4f6"/>
    <path d="M512 238 l14 8 l14 -12 l16 4" stroke="#5B7CFF" stroke-width="2.5" fill="none" stroke-linecap="round" stroke-linejoin="round"/>
  </g>
  <g>
    <rect x="724" y="160" width="224" height="104" rx="14" fill="#171d30" stroke="#232a40"/>
    <rect x="748" y="184" width="90" height="10" rx="4" fill="#9ca3af"/>
    <rect x="748" y="208" width="120" height="22" rx="4" fill="#f3f4f6"/>
    <path d="M748 240 l14 -6 l14 10 l16 -16" stroke="#f59e0b" stroke-width="2.5" fill="none" stroke-linecap="round" stroke-linejoin="round"/>
  </g>

  <!-- big chart panel -->
  <rect x="252" y="288" width="696" height="260" rx="16" fill="#171d30" stroke="#232a40"/>
  <rect x="280" y="312" width="160" height="12" rx="4" fill="#d1d5db"/>
  <g stroke="#232a40">
    <line x1="280" y1="380" x2="912" y2="380"/>
    <line x1="280" y1="440" x2="912" y2="440"/>
    <line x1="280" y1="500" x2="912" y2="500"/>
  </g>
  <polyline points="290,470 360,420 430,450 500,380 570,410 640,350 710,390 780,340 850,360 900,320" fill="none" stroke="#5B7CFF" stroke-width="3" stroke-linecap="round" stroke-linejoin="round"/>
  <polyline points="290,500 360,490 430,505 500,470 570,485 640,455 710,470 780,445 850,455 900,430" fill="none" stroke="#10b981" stroke-width="3" stroke-linecap="round" stroke-linejoin="round" opacity="0.7"/>

  <!-- right rail -->
  <rect x="972" y="96" width="176" height="452" rx="16" fill="#171d30" stroke="#232a40"/>
  <rect x="996" y="120" width="120" height="12" rx="4" fill="#d1d5db"/>
  <g>
    <circle cx="1010" cy="168" r="18" fill="#5B7CFF" opacity="0.2"/>
    <rect x="1038" y="160" width="90" height="9" rx="4" fill="#9ca3af"/>
    <rect x="1038" y="176" width="60" height="8" rx="4" fill="#6b7280"/>
  </g>
  <g>
    <circle cx="1010" cy="222" r="18" fill="#10b981" opacity="0.2"/>
    <rect x="1038" y="214" width="90" height="9" rx="4" fill="#9ca3af"/>
    <rect x="1038" y="230" width="70" height="8" rx="4" fill="#6b7280"/>
  </g>
  <g>
    <circle cx="1010" cy="276" r="18" fill="#f59e0b" opacity="0.2"/>
    <rect x="1038" y="268" width="90" height="9" rx="4" fill="#9ca3af"/>
    <rect x="1038" y="284" width="50" height="8" rx="4" fill="#6b7280"/>
  </g>
  <rect x="996" y="330" width="128" height="150" rx="10" fill="#0d1120"/>
  <rect x="1012" y="350" width="30" height="90" rx="4" fill="#5B7CFF" opacity="0.5"/>
  <rect x="1052" y="380" width="30" height="60" rx="4" fill="#10b981" opacity="0.5"/>
  <rect x="1092" y="360" width="30" height="80" rx="4" fill="#f59e0b" opacity="0.5"/>

  <text x="600" y="600" text-anchor="middle" font-family="Arial, sans-serif" font-size="15" letter-spacing="2" fill="#5B7CFF" opacity="0.8">DASHBOARD SCREEN PREVIEW</text>
</svg>
